<svg xmlns="http://www.w3.org/2000/svg" width="30" height="30" fill="none"><g fill="#fff" fill-opacity=".8" clip-path="url(#a)"><path d="m3.883 2.667.325.325a.82.82 0 0 1 0 1.166l-.008.009a.82.82 0 0 1-1.167 0l-.325-.325a.82.82 0 0 1 0-1.167l.009-.008a.827.827 0 0 1 1.166 0M.825 8.292h.85c.458 0 .825.366.825.833v.008a.81.81 0 0 1-.833.817H.825A.82.82 0 0 1 0 9.125v-.008c0-.459.367-.825.825-.825M9.167 0h.008c.458 0 .825.367.825.825v.808a.81.81 0 0 1-.833.817h-.009a.82.82 0 0 1-.825-.825v-.8C8.333.367 8.7 0 9.167 0M14.45 2.667a.84.84 0 0 1 1.175.008.82.82 0 0 1 0 1.167l-.325.325a.82.82 0 0 1-1.167 0l-.008-.009a.82.82 0 0 1 0-1.166zM4.167 9.125c0-2.758 2.241-5 5-5a5 5 0 0 1 4.392 2.61 6.88 6.88 0 0 0-2.052 3.271 5.002 5.002 0 0 0-4.985 3.361 5 5 0 0 1-2.355-4.242M3.883 15.575a.83.83 0 0 1-1.175 0A.84.84 0 0 1 2.7 14.4l.325-.325a.83.83 0 0 1 1.175 0l.008.008a.827.827 0 0 1 0 1.167z"/><path d="M25 23.75H8.75a3.75 3.75 0 0 1-1.246-7.288 5 5 0 0 1 5.253-5.205 6.875 6.875 0 0 1 13.45 2.64A5 5 0 0 1 25 23.75M12.482 28.786l1.661-3.323a.839.839 0 1 1 1.5.75l-1.661 3.323a.839.839 0 0 1-1.5-.75M16.232 28.786l1.661-3.323a.839.839 0 1 1 1.5.75l-1.661 3.323a.839.839 0 0 1-1.5-.75"/></g><defs><clipPath id="a"><path fill="#fff" d="M0 0h30v30H0z"/></clipPath></defs></svg>