<svg xmlns="http://www.w3.org/2000/svg" width="35" height="34" fill="none"><path fill="#fff" d="m4.91 6.224-.38-.368a.986.986 0 0 0-1.36 0l-.01.009a.91.91 0 0 0 0 1.322l.379.369a.976.976 0 0 0 1.361 0l.01-.01a.91.91 0 0 0 0-1.322M1.954 12.23H.963a.945.945 0 0 0-.963.936v.009c0 .52.428.935.963.935h.981c.545.01.973-.406.973-.925v-.01a.947.947 0 0 0-.963-.944M10.704 2.833h-.01c-.544 0-.972.416-.972.935v.907c0 .52.428.935.963.935h.01c.544.01.972-.406.972-.926v-.916a.945.945 0 0 0-.963-.935M18.23 5.865a1 1 0 0 0-1.372-.01l-.379.369a.91.91 0 0 0 0 1.322l.01.01a.976.976 0 0 0 1.361 0l.38-.369a.91.91 0 0 0 0-1.322M10.694 7.508c-3.218 0-5.833 2.54-5.833 5.667 0 2.026 1.099 3.807 2.749 4.808.789-2.22 2.96-3.816 5.515-3.816q.15 0 .3.007a7.77 7.77 0 0 1 2.393-3.707c-.99-1.762-2.915-2.959-5.124-2.959M3.16 20.485a.99.99 0 0 0 1.37 0l.38-.368a.92.92 0 0 0 0-1.323l-.01-.009a.99.99 0 0 0-1.37 0l-.38.368a.93.93 0 0 0 .01 1.332M10.208 29.75h18.959c3.221 0 5.833-2.537 5.833-5.667 0-2.657-1.884-4.888-4.425-5.5q.05-.43.05-.875c0-4.303-3.591-7.791-8.02-7.791-3.675 0-6.772 2.4-7.722 5.674a6 6 0 0 0-.3-.008c-3.221 0-5.833 2.537-5.833 5.667q0 .12.005.24c-1.702.582-2.922 2.158-2.922 4.01 0 2.347 1.96 4.25 4.375 4.25"/></svg>