<svg xmlns="http://www.w3.org/2000/svg" width="19" height="17" fill="none"><path stroke="#fff" stroke-width="2" d="m9.52 15.58-.28.58.28.135.28-.136zm0 0 .28.58.001-.001h.002l.005-.003.019-.01.07-.034.254-.131a25.028 25.028 0 0 0 3.623-2.32c.991-.769 2.006-1.7 2.778-2.748.77-1.046 1.332-2.255 1.332-3.567 0-2.125-.506-3.693-1.342-4.77A4.42 4.42 0 0 0 13.444.852a4.77 4.77 0 0 0-3.074.749c-.312.207-.597.46-.832.749-.24-.311-.536-.58-.864-.802C7.824.973 6.706.683 5.591.804A4.46 4.46 0 0 0 2.497 2.56c-.833 1.086-1.34 2.66-1.34 4.785 0 1.312.562 2.521 1.332 3.567.772 1.049 1.787 1.979 2.778 2.747a25 25 0 0 0 3.878 2.452l.07.034.018.01.005.002h.002v.001z"/></svg>