<svg xmlns="http://www.w3.org/2000/svg" width="28" height="28" fill="none"><path fill="#fff" fill-opacity=".6" d="M5.833 19.833H21a4.667 4.667 0 0 0 1.126-9.196q.04-.356.04-.72A6.417 6.417 0 0 0 9.573 8.172 4.667 4.667 0 0 0 4.67 13.03a3.502 3.502 0 0 0 1.162 6.802M8.65 21a.78.78 0 0 0-.7.432L6.4 24.534a.783.783 0 1 0 1.4.7l1.55-3.102A.783.783 0 0 0 8.65 21M12.15 21c.582 0 .96.612.7 1.132l-1.55 3.102a.783.783 0 1 1-1.4-.7l1.55-3.102a.78.78 0 0 1 .7-.432M19.15 21c.582 0 .96.612.7 1.132l-1.55 3.102a.783.783 0 1 1-1.4-.7l1.55-3.102a.78.78 0 0 1 .7-.432M15.65 21c.582 0 .96.612.7 1.132l-1.55 3.102a.783.783 0 1 1-1.4-.7l1.55-3.102a.78.78 0 0 1 .7-.432"/></svg>