<svg xmlns="http://www.w3.org/2000/svg" width="30" height="30" fill="none"><path fill="#fff" fill-opacity=".8" d="m7.565 5.758-.487-.49a1.24 1.24 0 0 0-1.751 0l-.013.013a1.24 1.24 0 0 0 0 1.758l.488.49c.488.49 1.263.49 1.75 0l.013-.013a1.24 1.24 0 0 0 0-1.758m-3.801 7.986H2.488c-.688 0-1.238.553-1.238 1.243V15c0 .69.55 1.243 1.238 1.243h1.263c.7.013 1.25-.54 1.25-1.23V15c0-.703-.55-1.256-1.237-1.256M15.019 1.25h-.013c-.7 0-1.25.552-1.25 1.243V3.7c0 .69.55 1.243 1.238 1.243h.012c.7.012 1.25-.54 1.25-1.23V2.492c0-.69-.55-1.243-1.237-1.243m9.68 4.03a1.253 1.253 0 0 0-1.764-.012l-.488.49a1.24 1.24 0 0 0 0 1.758l.013.012c.487.49 1.275.49 1.75 0l.488-.49a1.24 1.24 0 0 0 0-1.757m-2.264 18.962.487.49c.488.49 1.276.49 1.764 0 .487-.49.487-1.281 0-1.77l-.488-.49a1.24 1.24 0 0 0-1.75 0c-.501.502-.501 1.28-.013 1.77m2.576-9.255V15c0 .69.55 1.243 1.238 1.243h1.263c.688 0 1.238-.552 1.238-1.243v-.013c0-.69-.55-1.243-1.238-1.243h-1.263c-.688 0-1.238.553-1.238 1.243M15.006 7.466c-4.14 0-7.503 3.378-7.503 7.534s3.364 7.534 7.503 7.534S22.51 19.156 22.51 15s-3.364-7.534-7.504-7.534m-.012 21.284h.012c.688 0 1.238-.553 1.238-1.243V26.3c0-.69-.55-1.243-1.238-1.243h-.012c-.688 0-1.238.553-1.238 1.243v1.206c0 .69.55 1.243 1.238 1.243m-9.68-4.03c.488.489 1.276.489 1.764 0l.487-.49a1.25 1.25 0 0 0 0-1.759l-.012-.012a1.24 1.24 0 0 0-1.763 0l-.488.49a1.266 1.266 0 0 0 .012 1.77"/></svg>